<svg width="185" height="114" viewBox="0 0 185 114" fill="none" xmlns="http://www.w3.org/2000/svg">
<g clip-path="url(#clip0_1608_11858)">
<path fill-rule="evenodd" clip-rule="evenodd" d="M66.7286 101.274H115.975V12.5625H66.7286V101.274Z" fill="#4C4C4C"/>
<path fill-rule="evenodd" clip-rule="evenodd" d="M69.8554 56.9186C69.8554 38.9211 78.2616 22.8919 91.3518 12.5626C81.7777 5.00722 69.699 0.5 56.5698 0.5C25.4884 0.5 0.293091 25.7599 0.293091 56.9186C0.293091 88.0773 25.4884 113.337 56.5698 113.337C69.699 113.337 81.7777 108.83 91.3518 101.275C78.2616 90.9437 69.8554 74.9161 69.8554 56.9186Z" fill="#020202"/>
<path fill-rule="evenodd" clip-rule="evenodd" d="M180.654 91.8788V89.6895H180.083L179.428 91.1955L178.771 89.6895H178.201V91.8788H178.603V90.227L179.218 91.6516H179.636L180.252 90.2239V91.8788H180.654ZM177.041 91.8788V90.0625H177.772V89.6926H175.912V90.0625H176.642V91.8788H177.041ZM182.411 56.9181C182.411 88.0768 157.214 113.337 126.134 113.337C113.005 113.337 100.925 108.829 91.3522 101.274C104.442 90.9448 112.849 74.9156 112.849 56.9181C112.849 38.9221 104.442 22.893 91.3522 12.5621C100.925 5.00673 113.005 0.499512 126.134 0.499512C157.214 0.499512 182.411 25.7594 182.411 56.9181Z" fill="#6F6F6F"/>
</g>
<defs>
<clipPath id="clip0_1608_11858">
<rect width="184" height="113" fill="white" transform="translate(0.293091 0.5)"/>
</clipPath>
</defs>
</svg>
