<svg width="337" height="84" viewBox="0 0 337 84" fill="none" xmlns="http://www.w3.org/2000/svg">
<mask id="mask0_1608_11866" style="mask-type:alpha" maskUnits="userSpaceOnUse" x="0" y="0" width="337" height="84">
<g clip-path="url(#clip0_1608_11866)">
<path d="M180.603 16.6713C180.597 18.212 180.14 19.7162 179.29 20.9941C178.44 22.272 177.235 23.2662 175.828 23.8514C174.42 24.4365 172.873 24.5863 171.382 24.2818C169.89 23.9773 168.522 23.2322 167.448 22.1405C166.374 21.0488 165.644 19.6595 165.35 18.148C165.055 16.6365 165.209 15.0704 165.793 13.6477C166.377 12.2249 167.364 11.0091 168.629 10.1538C169.895 9.29853 171.382 8.84204 172.904 8.84204C173.917 8.84417 174.92 9.04837 175.855 9.44298C176.79 9.8376 177.64 10.4149 178.355 11.1419C179.07 11.8689 179.636 12.7314 180.022 13.6802C180.408 14.6289 180.605 15.6453 180.603 16.6713Z" fill="#F4D400"/>
<path d="M200.528 16.6713C200.521 18.212 200.064 19.7162 199.214 20.9941C198.365 22.272 197.16 23.2662 195.752 23.8514C194.345 24.4365 192.798 24.5863 191.306 24.2818C189.815 23.9773 188.446 23.2322 187.372 22.1405C186.299 21.0488 185.569 19.6595 185.274 18.148C184.98 16.6365 185.134 15.0704 185.718 13.6477C186.301 12.2249 187.288 11.0091 188.554 10.1538C189.819 9.29853 191.307 8.84204 192.828 8.84204C193.841 8.84417 194.844 9.04837 195.78 9.44298C196.715 9.8376 197.564 10.4149 198.279 11.1419C198.994 11.8689 199.561 12.7314 199.947 13.6802C200.333 14.6289 200.53 15.6453 200.528 16.6713Z" fill="#F4D400"/>
<path d="M126.786 43.2137L136.498 31.261C137.2 30.4037 136.801 29.4332 135.747 29.4332H128.463C128.08 29.4379 127.703 29.5309 127.36 29.7044C127.017 29.8782 126.717 30.1283 126.483 30.436L119.838 39.0244V30.9373C119.87 30.7174 119.851 30.4929 119.783 30.2816C119.714 30.0706 119.597 29.8787 119.442 29.7214C119.287 29.5642 119.097 29.4458 118.888 29.3763C118.68 29.3064 118.458 29.2873 118.241 29.3201H112.906C112.688 29.2836 112.465 29.3004 112.255 29.3686C112.044 29.4372 111.853 29.5553 111.697 29.7133C111.541 29.8716 111.424 30.0651 111.357 30.2779C111.289 30.4906 111.273 30.7168 111.309 30.9373V58.6925C111.273 58.913 111.289 59.139 111.357 59.3519C111.424 59.5648 111.541 59.7583 111.697 59.9166C111.853 60.0746 112.044 60.1927 112.255 60.2612C112.465 60.3295 112.688 60.3463 112.906 60.3098H118.273C118.491 60.3463 118.714 60.3295 118.924 60.2612C119.134 60.1927 119.325 60.0746 119.482 59.9166C119.638 59.7583 119.755 59.5648 119.822 59.3519C119.89 59.139 119.906 58.913 119.87 58.6925V47.9689L128.831 59.2908C129.028 59.5997 129.294 59.857 129.608 60.0426C129.921 60.2279 130.273 60.336 130.636 60.3583H138.207C138.41 60.3573 138.609 60.2974 138.779 60.1864C138.95 60.0751 139.086 59.9171 139.172 59.7304C139.257 59.5441 139.288 59.3367 139.262 59.1327C139.235 58.929 139.152 58.7369 139.022 58.5791L126.786 43.2137Z" fill="#0087E6"/>
<path d="M277.172 29.3013H254.378C254.033 29.3013 253.703 29.4399 253.459 29.6866C253.215 29.9334 253.078 30.2681 253.078 30.6169V36.6108C253.078 36.9597 253.215 37.2944 253.459 37.5411C253.703 37.7879 254.033 37.9265 254.378 37.9265H261.564V59.0428C261.564 59.3916 261.701 59.7263 261.945 59.9731C262.189 60.2198 262.518 60.3584 262.863 60.3584H268.734C269.079 60.3584 269.411 60.2198 269.654 59.9731C269.898 59.7263 270.033 59.3916 270.033 59.0428V37.9265H277.141C277.486 37.9265 277.815 37.7879 278.059 37.5411C278.302 37.2944 278.44 36.9597 278.44 36.6108V30.6169C278.44 30.2681 278.302 29.9334 278.059 29.6866C277.815 29.4399 277.486 29.3013 277.141 29.3013" fill="#0087E6"/>
<path d="M209.89 53.4373H202.556V47.6235H209.89C214.378 47.6235 214.715 53.4373 209.89 53.4373ZM202.556 36.2396H208.089C208.729 36.2396 209.343 36.4969 209.795 36.9549C210.247 37.4133 210.502 38.0346 210.502 38.6825C210.502 39.3303 210.247 39.9516 209.795 40.4097C209.343 40.868 208.729 41.1253 208.089 41.1253H202.556V36.2396ZM216.42 43.4054C221.84 38.1286 218.221 29.3018 209.89 29.3018H195.576C195.231 29.3018 194.9 29.4406 194.655 29.6882C194.411 29.9354 194.274 30.2712 194.274 30.6208V59.0399C194.274 59.3895 194.411 59.7252 194.655 59.9725C194.9 60.2198 195.231 60.3589 195.576 60.3589H211.29C222.194 60.3589 225.105 47.6235 216.42 43.4054Z" fill="#0087E6"/>
<path d="M187.559 30.6208C187.559 30.2712 187.422 29.9354 187.177 29.6882C186.933 29.4406 186.602 29.3018 186.256 29.3018H179.485C179.14 29.3018 178.808 29.4406 178.564 29.6882C178.32 29.9354 178.183 30.2712 178.183 30.6208V59.0399C178.183 59.3895 178.32 59.7252 178.564 59.9725C178.808 60.2198 179.14 60.3589 179.485 60.3589H186.256C186.602 60.3589 186.933 60.2198 187.177 59.9725C187.422 59.7252 187.559 59.3895 187.559 59.0399V30.6208Z" fill="#0087E6"/>
<path d="M323.896 43.6109H319.302V36.4562H323.782C326.802 36.4562 327.847 37.8871 327.847 39.9522C327.847 41.7246 327.043 43.5621 323.896 43.5621V43.6109ZM324.539 29.3018H312.044C311.699 29.3018 311.37 29.4406 311.126 29.6876C310.88 29.9346 310.745 30.2696 310.745 30.6187V59.0417C310.745 59.3911 310.88 59.726 311.126 59.973C311.37 60.2201 311.699 60.3589 312.044 60.3589H317.97C318.315 60.3589 318.646 60.2201 318.89 59.973C319.134 59.726 319.271 59.3911 319.271 59.0417V50.6514H324.088C330.96 50.6514 336.178 46.9929 336.178 40.0661C336.178 33.5619 330.833 29.3506 324.44 29.3506" fill="#0087E6"/>
<path d="M288.511 48.1144L291.876 37.9588L295.241 48.1144H288.511ZM307.961 58.7241L297.579 30.4965C297.48 30.1253 297.252 29.8021 296.938 29.5853C296.625 29.3682 296.244 29.2716 295.865 29.3121H287.966C287.588 29.2674 287.202 29.3622 286.885 29.5795C286.569 29.7969 286.339 30.1221 286.237 30.4965L275.824 58.7241C275.718 58.8966 275.663 59.0958 275.666 59.2985C275.669 59.5011 275.728 59.6988 275.837 59.8686C275.946 60.0387 276.102 60.1737 276.283 60.2582C276.464 60.3427 276.667 60.3734 276.866 60.3464H283.497C283.777 60.3312 284.047 60.2343 284.275 60.0673C284.503 59.9004 284.677 59.6707 284.781 59.4056L286.141 55.2686H297.579L298.927 59.4056C299.028 59.6707 299.202 59.9004 299.43 60.0673C299.658 60.2343 299.927 60.3312 300.207 60.3464H306.841C307.041 60.3771 307.243 60.3493 307.427 60.2661C307.614 60.1831 307.769 60.0482 307.881 59.8776C307.992 59.7069 308.052 59.5077 308.054 59.3032C308.059 59.099 308.002 58.8979 307.896 58.7241" fill="#0087E6"/>
<path d="M171.681 59.0399V30.6208C171.681 30.2712 171.544 29.9354 171.3 29.6882C171.055 29.4406 170.724 29.3018 170.378 29.3018H163.945C163.706 29.3046 163.47 29.3669 163.26 29.4834C163.05 29.5997 162.871 29.7666 162.739 29.9696L150.677 46.6136V30.6208C150.677 30.2712 150.539 29.9354 150.295 29.6882C150.051 29.4406 149.72 29.3018 149.374 29.3018H143.423C143.078 29.3018 142.746 29.4406 142.502 29.6882C142.258 29.9354 142.121 30.2712 142.121 30.6208V59.0399C142.121 59.3895 142.258 59.7252 142.502 59.9725C142.746 60.2198 143.078 60.3589 143.423 60.3589H149.953C150.19 60.3534 150.422 60.2899 150.629 60.1736C150.837 60.0573 151.013 59.8917 151.143 59.6911L163.205 43.047V59.0399C163.205 59.3895 163.343 59.7252 163.587 59.9725C163.831 60.2198 164.163 60.3589 164.508 60.3589H170.443C170.79 60.3589 171.123 60.2206 171.37 59.9736C171.616 59.7266 171.757 59.3911 171.762 59.0399H171.681Z" fill="#0087E6"/>
<path d="M251.088 54.4694L247.575 50.7172C247.453 50.565 247.299 50.4421 247.124 50.3579C246.949 50.2734 246.758 50.2298 246.564 50.23C246.237 50.2366 245.924 50.3637 245.682 50.5873C243.803 52.2859 241.368 53.2178 238.849 53.2026C236.666 53.2026 234.573 52.3245 233.03 50.7619C231.487 49.1992 230.62 47.0798 230.62 44.8698C230.62 42.6598 231.487 40.5401 233.03 38.9775C234.573 37.4148 236.666 36.537 238.849 36.537C241.367 36.5123 243.803 37.4389 245.682 39.1357C245.92 39.3649 246.236 39.4927 246.564 39.4933C246.758 39.4933 246.949 39.4497 247.124 39.3654C247.299 39.2812 247.453 39.1583 247.575 39.0058L251.088 35.2536C251.317 35.0145 251.444 34.6935 251.441 34.3603C251.442 34.1853 251.408 34.0117 251.342 33.85C251.276 33.6881 251.179 33.5413 251.056 33.4182C249.479 31.7881 247.594 30.4963 245.513 29.6199C243.432 28.7436 241.198 28.3008 238.945 28.3179C234.709 28.4523 230.691 30.2509 227.741 33.3327C224.792 36.4144 223.143 40.5375 223.143 44.8291C223.143 49.1207 224.792 53.2438 227.741 56.3256C230.691 59.4073 234.709 61.206 238.945 61.3404C241.199 61.3711 243.437 60.9411 245.523 60.0759C247.61 59.2107 249.502 57.9281 251.088 56.3051C251.213 56.183 251.311 56.0363 251.377 55.8743C251.443 55.7124 251.476 55.5383 251.473 55.363C251.476 55.0296 251.349 54.7088 251.12 54.4694H251.088Z" fill="#0087E6"/>
<path d="M42.7637 32.2536L42.7394 32.2534C43.4559 32.2486 44.1646 32.1027 44.8259 31.8234C45.495 31.5412 46.1024 31.128 46.6138 30.608C47.125 30.088 47.5302 29.4709 47.8063 28.7923C48.0821 28.1137 48.2231 27.3866 48.2216 26.6527V6.10011C48.2937 5.3271 48.2055 4.54737 47.9629 3.81084C47.72 3.07435 47.328 2.39728 46.8119 1.82303C46.296 1.24878 45.6671 0.790007 44.9657 0.47608C44.2644 0.162155 43.5062 0 42.7394 0C41.9726 0 41.2143 0.162155 40.5128 0.47608C39.8116 0.790007 39.1827 1.24878 38.6666 1.82303C38.1505 2.39728 37.7585 3.07435 37.5159 3.81084C37.2732 4.54737 37.1851 5.3271 37.2569 6.10011V26.6527C37.2554 27.3866 37.3966 28.1137 37.6725 28.7923C37.9483 29.4709 38.3535 30.088 38.8649 30.608C39.3761 31.128 39.9838 31.5412 40.6526 31.8234C41.3141 32.1027 42.0229 32.2486 42.7394 32.2534L42.715 32.2536H42.7637Z" fill="#0087E6"/>
<path d="M29.8986 41.7652C29.6786 42.4637 29.3247 43.1113 28.8568 43.6709C28.3889 44.2306 27.8162 44.691 27.1721 45.0257C26.5279 45.3604 25.8247 45.563 25.103 45.6216C24.3812 45.6801 23.6551 45.5937 22.9665 45.3675L3.76621 39.0139C2.38723 38.544 1.24674 37.5426 0.59187 36.2267C-0.063 34.911 -0.179496 33.387 0.267624 31.9849C0.714743 30.5829 1.68946 29.4156 2.98056 28.7362C4.27168 28.0569 5.77517 27.9199 7.16524 28.3554L26.3656 34.7086C27.7571 35.1714 28.9104 36.1742 29.573 37.4972C30.2354 38.8199 30.3523 40.3548 29.8986 41.7652Z" fill="#0087E6"/>
<path d="M56.6717 43.6746C56.203 43.1142 55.8487 42.465 55.6288 41.7652C55.1783 40.3548 55.297 38.8215 55.9589 37.4993C56.6209 36.1773 57.7722 35.1741 59.1619 34.7086L78.3743 28.3554C79.7643 27.9199 81.2678 28.0569 82.559 28.7362C83.85 29.4156 84.8247 30.5829 85.2719 31.9849C85.7191 33.387 85.6027 34.911 84.9476 36.2267C84.2928 37.5426 83.1524 38.544 81.7733 39.0139L62.5731 45.3675C61.8836 45.5956 61.1564 45.6835 60.4332 45.6258C59.7102 45.568 59.0056 45.3659 58.3598 45.0312C57.7144 44.6962 57.1407 44.2353 56.6717 43.6746Z" fill="#0087E6"/>
<path d="M16.4608 82.8829C15.2772 82.0049 14.4849 80.6882 14.2566 79.2205C14.0284 77.7529 14.3828 76.2532 15.2425 75.0494L27.1086 58.4815C27.5327 57.8882 28.068 57.3858 28.6842 57.0025C29.3003 56.6193 29.9852 56.3631 30.6994 56.2486C31.4136 56.1339 32.1431 56.163 32.8461 56.3347C33.5491 56.5061 34.2117 56.8164 34.796 57.2477C35.9797 58.1258 36.7719 59.4425 37.0003 60.9101C37.2284 62.3777 36.874 63.8774 36.0144 65.0815L24.1604 81.6371C23.7353 82.2306 23.1987 82.7333 22.5815 83.1168C21.9642 83.5001 21.2784 83.7563 20.5632 83.871C19.8481 83.9854 19.1176 83.956 18.4136 83.7846C17.7097 83.6129 17.0461 83.3024 16.4608 82.8706V82.8829Z" fill="#0087E6"/>
<path d="M71.2708 79.2204C71.0424 80.688 70.25 82.0047 69.0666 82.8828V82.9321C68.4823 83.3634 67.8197 83.6739 67.1166 83.8453C66.4136 84.0167 65.6841 84.0459 64.97 83.9314C64.2558 83.8167 63.5709 83.5605 62.9547 83.1773C62.3385 82.7943 61.8032 82.2916 61.3791 81.6986L49.5131 65.069C49.0859 64.476 48.7781 63.8037 48.6076 63.0903C48.437 62.377 48.4069 61.6365 48.5189 60.9115C48.6309 60.1862 48.8829 59.4906 49.2603 58.864C49.6378 58.2374 50.1337 57.6925 50.719 57.2599C51.3046 56.8273 51.9688 56.5157 52.6731 56.343C53.3777 56.1702 54.1087 56.1398 54.8247 56.2532C55.541 56.3666 56.2279 56.6217 56.8467 57.0039C57.4655 57.3864 58.0037 57.8883 58.4309 58.4813L70.285 75.0492C71.1446 76.2531 71.4989 77.7527 71.2708 79.2204Z" fill="#0087E6"/>
</g>
</mask>
<g mask="url(#mask0_1608_11866)">
<rect width="336" height="84" fill="#020202"/>
</g>
<defs>
<clipPath id="clip0_1608_11866">
<rect width="337" height="84" fill="white"/>
</clipPath>
</defs>
</svg>
