<svg width="315" height="112" viewBox="0 0 315 112" fill="none" xmlns="http://www.w3.org/2000/svg">
<mask id="mask0_1608_11888" style="mask-type:alpha" maskUnits="userSpaceOnUse" x="0" y="0" width="315" height="112">
<g clip-path="url(#clip0_1608_11888)">
<path d="M77.9076 39.8379L89.3134 67.7201H93.1467V79.1622H86.7828V73.0704H63.553V79.1622H57.1907V67.7201H60.9921L71.6842 39.8379H77.9076ZM67.5234 67.7201H82.7589L74.8182 47.2624L67.5234 67.7201Z" fill="#2B4872"/>
<path d="M110.776 39.4126C114.234 39.4126 117.349 40.1188 120.119 41.54C122.883 42.9576 125.089 45.0071 126.733 47.6778C128.375 50.3503 129.196 53.2829 129.196 56.4669C129.196 59.5748 128.396 62.4614 126.791 65.1161C125.19 67.7709 122.986 69.8363 120.191 71.3001C117.389 72.7672 114.234 73.5017 110.728 73.5017C107.267 73.5017 104.122 72.7548 101.289 71.2628C98.4612 69.7726 96.2562 67.7231 94.6759 65.1161C93.0973 62.5074 92.3089 59.6243 92.3089 56.4669C92.3089 53.4209 93.0973 50.5608 94.6759 47.8831C96.2562 45.1982 98.4309 43.1169 101.209 41.6356C103.982 40.1523 107.171 39.4126 110.776 39.4126ZM98.9826 56.4669C98.9826 58.6721 99.488 60.6543 100.49 62.4135C101.495 64.1746 102.891 65.5373 104.688 66.5055C106.484 67.4736 108.513 67.9586 110.778 67.9586C114.206 67.9586 117.025 66.8895 119.237 64.7427C121.445 62.6065 122.549 59.8455 122.549 56.4669C122.549 54.2617 122.049 52.2793 121.054 50.5078C120.052 48.7415 118.653 47.3715 116.843 46.4018C115.033 45.4336 112.994 44.9522 110.73 44.9522C108.468 44.9522 106.427 45.4406 104.619 46.4141C102.807 47.3893 101.415 48.7539 100.447 50.5078C99.472 52.2617 98.9826 54.2475 98.9826 56.4669Z" fill="#2B4872"/>
<path d="M155.513 39.8379V44.8572H138.766V52.8074H145.728C148.152 52.8074 150.302 53.2321 152.175 54.0887C154.05 54.9471 155.493 56.14 156.504 57.6692C157.519 59.2018 158.023 60.938 158.023 62.8902C158.023 65.9998 156.921 68.4759 154.721 70.3112C152.521 72.1518 149.631 73.0686 146.061 73.0686H132.31V39.8379H155.513ZM144.986 68.0546C146.867 68.0546 148.389 67.5768 149.553 66.6281C150.716 65.6724 151.304 64.4123 151.304 62.8424C151.304 61.2725 150.723 60.0354 149.569 59.131C148.41 58.2266 146.82 57.7718 144.796 57.7718H138.766V68.0529H144.986V68.0546Z" fill="#2B4872"/>
<path d="M173.6 39.8376C176.724 39.8376 179.265 40.7385 181.218 42.5403C183.171 44.3402 184.146 46.6604 184.146 49.4975C184.146 52.3682 183.156 54.6938 181.177 56.4672C179.203 58.2442 176.595 59.1325 173.357 59.1325H167.138V73.0702H160.68V39.8376H173.6ZM171.996 54.1115C173.715 54.1115 175.063 53.7186 176.028 52.9363C176.992 52.1488 177.474 50.9913 177.474 49.4498C177.474 46.3913 175.497 44.8569 171.541 44.8569H167.138V54.1115H171.996Z" fill="#2B4872"/>
<path d="M204.457 39.4124C207.919 39.4124 211.036 40.1186 213.802 41.5397C216.567 42.9573 218.771 45.0069 220.416 47.6775C222.056 50.35 222.88 53.2827 222.88 56.4666C222.88 59.5745 222.077 62.4611 220.476 65.1159C218.874 67.7708 216.672 69.8361 213.878 71.2998C211.076 72.767 207.921 73.5014 204.415 73.5014C200.953 73.5014 197.806 72.7547 194.978 71.2626C192.146 69.7725 189.942 67.7229 188.364 65.1159C186.785 62.5071 185.994 59.6241 185.994 56.4666C185.994 53.4208 186.785 50.5607 188.364 47.8829C189.942 45.198 192.118 43.1167 194.892 41.6353C197.665 40.1521 200.857 39.4124 204.457 39.4124ZM192.667 56.4666C192.667 58.6718 193.167 60.6542 194.174 62.4134C195.182 64.1744 196.575 65.5372 198.373 66.5052C200.169 67.4734 202.195 67.9583 204.457 67.9583C207.89 67.9583 210.709 66.8893 212.918 64.7426C215.126 62.6063 216.228 59.8454 216.228 56.4666C216.228 54.2614 215.729 52.2792 214.737 50.5075C213.736 48.7413 212.334 47.3714 210.52 46.4015C208.712 45.4334 206.675 44.952 204.413 44.952C202.146 44.952 200.109 45.4405 198.301 46.4139C196.489 47.3891 195.1 48.7536 194.124 50.5075C193.153 52.2615 192.667 54.2473 192.667 56.4666Z" fill="#2B4872"/>
<path d="M248.215 39.8376V44.8569H231.469V52.8071H238.431C240.855 52.8071 243.003 53.2319 244.879 54.0884C246.754 54.9468 248.194 56.1397 249.208 57.6689C250.222 59.2016 250.725 60.9378 250.725 62.89C250.725 65.9996 249.625 68.4756 247.425 70.311C245.226 72.1516 242.337 73.0685 238.765 73.0685H225.013V39.8376H248.215ZM237.691 68.0543C239.574 68.0543 241.095 67.5765 242.261 66.6279C243.424 65.6722 244.007 64.4121 244.007 62.8421C244.007 61.2724 243.428 60.0352 242.273 59.1308C241.115 58.2264 239.524 57.7715 237.503 57.7715H231.47V68.0526H237.691V68.0543Z" fill="#2B4872"/>
<path d="M256.71 39.8376L268.024 59.0034L277.093 39.8376H283.695L271.351 65.3801C271.351 65.3801 268.792 70.7569 267.172 72.233C265.555 73.7056 263.535 74.4471 261.109 74.4471C259.133 74.4471 257.5 74.0895 256.208 73.3728V67.7093C257.71 68.7252 259.244 69.2332 260.824 69.2332C261.826 69.2332 262.724 68.9447 263.502 68.3765C264.285 67.8066 264.796 67.0066 265.033 65.9748L249.985 39.8376H256.71Z" fill="#2B4872"/>
<path d="M314.433 39.8376V44.8569H302.569V73.0702H296.109V44.8569H284.244V39.8376H314.433Z" fill="#2B4872"/>
<path d="M3.57434 111.474C17.088 109.503 28.6667 104.381 41.9374 110.613C44.3522 111.747 46.4648 108.177 44.0407 107.037C37.4225 103.932 31.0162 102.54 23.7124 103.3C16.5396 104.037 9.60675 106.442 2.47131 107.486C-0.177214 107.867 0.953854 111.855 3.57434 111.474Z" fill="#95C14E"/>
<path d="M26.898 3.6309C26.3216 4.55742 25.7295 5.47156 25.1157 6.3733C24.854 6.74824 24.5798 7.12939 24.2993 7.49815C24.1841 7.65309 24.103 7.76465 24.0407 7.8576C24.0158 7.88239 23.9846 7.91339 23.9566 7.94437C21.7973 5.69776 18.7654 4.66898 15.6588 6.29893C12.6427 7.8762 10.6049 12.4903 12.7611 15.5643C16.4597 20.8445 22.006 24.5786 28.565 21.5325C33.0145 19.4625 35.984 15.1087 38.486 11.0803C43.1755 3.55342 31.5812 -3.88981 26.898 3.6309Z" fill="#CE3728"/>
<path d="M30.4779 68.6753C29.4559 61.3002 30.3782 55.9425 33.3196 49.1841C35.94 43.1632 38.2988 37.2786 37.7473 30.5945C37.4325 26.8172 31.4469 26.5228 31.7647 30.3436C32.229 36.0051 30.3782 40.9475 28.2219 45.9645C27.337 45.6762 26.3181 45.7879 25.4082 46.5625C24.2305 47.5666 23.4015 47.2349 22.4512 46.1132C21.6286 45.1433 20.6004 44.9419 19.6812 45.2021C18.0671 40.2534 16.7585 35.4287 17.659 30.0368C18.2915 26.2532 12.2965 26.0518 11.6764 29.7889C9.73831 41.4031 18.2292 51.2355 16.8675 62.611C16.0293 69.5895 16.369 76.5989 15.6336 83.5742C14.9512 90.0754 13.3528 95.8143 13.3528 102.393C13.3497 106.226 19.3353 106.486 19.3353 102.641C19.3415 96.7377 20.3729 91.473 21.3544 85.672C21.5569 84.4605 21.6941 83.2426 21.8031 82.0217C23.2987 81.9039 24.6884 81.6064 26.0345 81.0456C26.1872 82.2851 26.3431 83.5247 26.4863 84.7611C27.1719 90.7726 30.0758 96.245 29.7363 102.368C29.5243 106.208 35.5101 106.449 35.7188 102.616C36.0179 97.215 34.2293 92.1516 33.0048 86.9487C31.6058 81.027 31.3129 74.7148 30.4779 68.6753Z" fill="#2B4872"/>
<path d="M24.7687 43.66C25.6941 43.4431 26.7504 42.653 26.9435 41.6645C27.4608 39.0491 27.5667 36.5484 27.2676 33.902C27.09 32.2845 25.1238 31.3394 23.675 31.6709C22.1824 32.0149 21.4657 33.2296 21.4128 34.5931C20.5964 35.0114 19.9888 35.8109 19.939 37.0008C19.8518 39.1886 20.1509 41.2492 21.8864 42.777C22.7121 43.499 23.6407 43.9204 24.7687 43.66Z" fill="#2B4872"/>
</g>
</mask>
<g mask="url(#mask0_1608_11888)">
<rect y="1.5" width="315" height="111" fill="#020202"/>
</g>
<defs>
<clipPath id="clip0_1608_11888">
<rect width="315" height="111" fill="white" transform="translate(0 0.5)"/>
</clipPath>
</defs>
</svg>
