<svg width="100" height="100" viewBox="0 0 100 100" fill="none" xmlns="http://www.w3.org/2000/svg">
<circle cx="50" cy="50" r="49" stroke="#7D1E1E" stroke-width="2"/>
<path d="M36.1978 75.3302C36.1978 74.2278 36.5773 73.159 37.2724 72.3034L46.8725 60.488C48.7934 58.1238 52.4022 58.1238 54.3231 60.488L63.9231 72.3034C64.6183 73.159 64.9978 74.2278 64.9978 75.3302V75.6C64.9978 78.251 62.8488 80.4 60.1978 80.4H40.9978C38.3468 80.4 36.1978 78.251 36.1978 75.6V75.3302Z" stroke="#7D1E1E" stroke-width="2.4"/>
<rect x="39.7994" y="80.3997" width="21.6" height="4.8" rx="2.4" stroke="#7D1E1E" stroke-width="2.4"/>
<rect x="43.3972" y="85.2" width="14.4" height="4.8" rx="2.4" stroke="#7D1E1E" stroke-width="2.4"/>
<circle cx="50" cy="51" r="25.8" fill="#EAE5E1" stroke="#7D1E1E" stroke-width="2.4"/>
<line x1="50.2" y1="48.6001" x2="50.2" y2="76.6001" stroke="#7D1E1E" stroke-width="2.4"/>
<path d="M52.8 42.8001C52.8 44.782 52.334 46.5173 51.6426 47.7159C50.9327 48.9462 50.132 49.4001 49.5 49.4001C48.868 49.4001 48.0673 48.9462 47.3574 47.7159C46.666 46.5173 46.2 44.782 46.2 42.8001C46.2 40.8399 46.7159 38.7582 47.4992 37.0301C48.1195 35.6616 48.8454 34.6479 49.5 34.065C50.1546 34.6479 50.8805 35.6616 51.5008 37.0301C52.2841 38.7582 52.8 40.8399 52.8 42.8001Z" stroke="#7D1E1E" stroke-width="2.4"/>
<path d="M58.6792 59.8413C57.2298 61.1559 55.6307 61.9441 54.262 62.2002C52.871 62.4606 51.922 62.1523 51.4207 61.5996C50.9194 61.0469 50.7049 60.0725 51.0994 58.7133C51.4875 57.3761 52.4276 55.8612 53.877 54.5466C55.3103 53.2466 57.2014 52.2652 59.0278 51.7275C60.5196 51.2883 61.8242 51.1857 62.738 51.3349C62.7976 52.2589 62.5685 53.5473 61.9862 54.9893C61.2733 56.7546 60.1125 58.5413 58.6792 59.8413Z" stroke="#7D1E1E" stroke-width="2.4"/>
<path d="M46.1074 54.6795C47.5301 56.0229 48.4396 57.5564 48.8008 58.9011C49.1679 60.2679 48.934 61.2379 48.4217 61.7804C47.9094 62.3229 46.9544 62.6121 45.5689 62.3238C44.2056 62.0403 42.6226 61.2201 41.1999 59.8767C39.793 58.5481 38.6683 56.7386 37.991 54.9593C37.4378 53.5059 37.2346 52.2131 37.3128 51.2905C38.2294 51.1597 39.5316 51.2885 41.0143 51.7575C42.8295 52.3318 44.7005 53.351 46.1074 54.6795Z" stroke="#7D1E1E" stroke-width="2.4"/>
<line x1="9.68896" y1="37.4163" x2="21.1487" y2="42.7711" stroke="#7D1E1E" stroke-width="2"/>
<line x1="90.0983" y1="36.8343" x2="79.5457" y2="43.8087" stroke="#7D1E1E" stroke-width="2"/>
<line x1="22.509" y1="18.6299" x2="30.9703" y2="28.0324" stroke="#7D1E1E" stroke-width="2"/>
<line x1="75.8106" y1="17.5516" x2="68.8329" y2="28.102" stroke="#7D1E1E" stroke-width="2"/>
<line x1="49" y1="9" x2="49" y2="21.6491" stroke="#7D1E1E" stroke-width="2"/>
</svg>
