<svg width="971" height="529" viewBox="0 0 971 529" fill="none" xmlns="http://www.w3.org/2000/svg">
<path d="M26.0777 471.733H36.9829C37.9312 466.514 41.2501 462.244 41.2501 462.244H44.0949V483.595H41.2501C41.2501 483.595 37.9312 479.324 36.9829 474.106H26.0777V503.522H48.3622C48.3622 493.558 54.5261 488.814 54.5261 488.814H57.3709V505.894H4.74139V504.472L10.4311 503.048V442.317L4.74139 440.893V439.47H55.4744V456.55H52.6295C52.6295 456.55 46.4657 451.806 46.4657 441.842H26.0777V471.733ZM64.9127 501.625L76.6713 486.537L60.6455 461.295L55.9041 459.871V458.449H68.7058C75.3438 458.449 78.4731 461.77 81.5076 466.514L86.3438 474.201L95.2577 462.718L88.1455 459.871V458.449H106.163V459.871L98.5767 462.718L87.7662 476.478L104.74 503.048L109.482 504.472V505.894H96.68C90.0421 505.894 86.9128 502.573 83.8782 497.828L78.1886 488.909L68.2316 501.625L75.3438 504.472V505.894H57.3264V504.472L64.9127 501.625ZM122.299 482.171C130.833 482.171 135.574 481.222 135.574 481.222C135.574 481.222 136.522 477.901 136.522 474.106C136.522 462.718 132.729 458.923 129.41 458.923C126.091 458.923 122.299 462.718 122.299 482.171ZM131.781 507.317C115.66 507.317 106.178 497.828 106.178 482.171C106.178 466.514 115.66 457.025 129.41 457.025C143.635 457.025 152.169 465.565 152.169 476.003C152.169 479.324 151.221 481.697 151.221 481.697C151.221 481.697 137.471 484.544 122.299 484.544C122.299 500.201 127.039 504.946 133.677 504.946C141.264 504.946 147.428 498.778 147.428 492.61H149.799C149.799 500.201 142.686 507.317 131.781 507.317ZM181.999 458.923C175.361 458.923 170.62 463.667 170.62 482.171C170.62 500.201 175.361 504.946 181.999 504.946C189.586 504.946 195.749 498.778 195.749 492.61H198.12C198.12 500.201 191.007 507.317 180.103 507.317C163.982 507.317 154.5 497.828 154.5 482.171C154.5 466.514 163.982 457.025 180.103 457.025C192.431 457.025 197.645 462.244 197.645 467.464C197.645 471.733 194.802 474.58 190.534 474.58C188.638 474.58 186.741 474.106 186.741 474.106V459.871C186.741 459.871 184.844 458.923 181.999 458.923ZM198.62 458.449H210.948C216.637 458.449 219.482 461.295 219.482 466.989V491.66C219.482 500.201 223.275 503.996 226.594 503.996C232.284 503.996 235.129 496.405 235.129 496.405V461.295L229.439 459.871V458.449H255.992V459.871L250.302 461.295V506.369H249.353C238.448 506.369 236.551 498.778 236.551 498.778C236.551 498.778 232.758 507.317 222.801 507.317C211.896 507.317 204.31 499.726 204.31 491.66V461.295L198.62 459.871V458.449ZM261.244 458.449V453.703C261.244 448.01 264.089 445.164 269.778 445.164H276.417V458.449H289.692V460.821H276.417V489.763C276.417 502.099 279.26 504.946 283.528 504.946C287.795 504.946 292.063 500.675 292.063 492.61H294.433C294.433 502.099 289.218 507.317 281.631 507.317C268.83 507.317 261.244 499.726 261.244 489.763V460.821H254.606V458.449H261.244ZM300.141 446.587C300.141 442.317 303.935 438.521 308.202 438.521C312.469 438.521 316.263 442.317 316.263 446.587C316.263 450.857 312.469 454.653 308.202 454.653C303.935 454.653 300.141 450.857 300.141 446.587ZM294.926 458.449H307.254C312.943 458.449 315.788 461.295 315.788 466.989V503.048L321.478 504.472V505.894H294.926V504.472L300.616 503.048V461.295L294.926 459.871V458.449ZM351.735 488.434L362.261 462.718L355.149 459.871V458.449H372.693V459.871L365.106 462.718L347.089 506.843H344.244L320.537 461.295L315.796 459.871V458.449H327.649C334.762 458.449 337.986 461.77 340.45 466.514L351.735 488.434ZM384.075 482.171C392.61 482.171 397.352 481.222 397.352 481.222C397.352 481.222 398.3 477.901 398.3 474.106C398.3 462.718 394.507 458.923 391.188 458.923C387.869 458.923 384.075 462.718 384.075 482.171ZM393.558 507.317C377.437 507.317 367.954 497.828 367.954 482.171C367.954 466.514 377.437 457.025 391.188 457.025C405.411 457.025 413.946 465.565 413.946 476.003C413.946 479.324 412.998 481.697 412.998 481.697C412.998 481.697 399.247 484.544 384.075 484.544C384.075 500.201 388.817 504.946 395.455 504.946C403.042 504.946 409.205 498.778 409.205 492.61H411.575C411.575 500.201 404.463 507.317 393.558 507.317Z" fill="#7D1E1E"/>
<path d="M509.403 438.046C518.317 438.046 524.481 444.214 524.481 444.214C526.377 440.893 529.696 438.996 529.696 438.996H532.067V457.024H528.274C528.274 457.024 524.007 440.418 511.205 440.418C503.618 440.418 496.033 448.009 496.033 472.681C496.033 497.353 503.618 504.946 513.575 504.946C522.584 504.946 531.119 496.405 531.119 486.916H533.49C533.49 497.828 524.007 507.317 511.679 507.317C491.765 507.317 479.437 494.982 479.437 472.681C479.437 450.382 491.765 438.046 509.403 438.046ZM560.1 505.42C564.367 505.42 569.109 500.675 569.109 482.171C569.109 463.667 564.367 458.923 560.1 458.923C555.834 458.923 551.092 463.667 551.092 482.171C551.092 500.675 555.834 505.42 560.1 505.42ZM560.1 457.024C575.747 457.024 585.23 466.513 585.23 482.171C585.23 497.828 575.747 507.317 560.1 507.317C544.454 507.317 534.971 497.828 534.971 482.171C534.971 466.513 544.454 457.024 560.1 457.024ZM606.599 483.595C606.599 483.595 604.703 487.864 604.703 493.558C604.703 501.149 607.548 503.996 610.393 503.996C616.082 503.996 618.927 496.405 618.927 496.405V482.646C613.237 482.646 606.599 483.595 606.599 483.595ZM610.393 457.024C625.565 457.024 634.099 465.565 634.099 477.427V503.047L639.789 504.471V505.894H631.254C622.246 505.894 620.35 498.778 620.35 498.778C620.35 498.778 616.557 507.317 606.599 507.317C594.747 507.317 589.057 501.624 589.057 494.507C589.057 488.814 592.376 484.069 592.376 484.069C592.376 484.069 606.125 480.748 618.927 480.273V477.427C618.927 462.718 615.134 458.923 608.496 458.923C605.651 458.923 603.754 459.871 603.754 459.871V474.105C603.754 474.105 601.858 474.58 599.961 474.58C595.695 474.58 592.85 471.733 592.85 467.463C592.85 462.244 598.066 457.024 610.393 457.024ZM668.283 458.923C661.645 458.923 656.903 463.667 656.903 482.171C656.903 500.2 661.645 504.946 668.283 504.946C675.868 504.946 682.032 498.778 682.032 492.609H684.403C684.403 500.2 677.291 507.317 666.386 507.317C650.265 507.317 640.782 497.828 640.782 482.171C640.782 466.513 650.265 457.024 666.386 457.024C678.713 457.024 683.929 462.244 683.929 467.463C683.929 471.733 681.084 474.58 676.816 474.58C674.92 474.58 673.023 474.105 673.023 474.105V459.871C673.023 459.871 671.128 458.923 668.283 458.923ZM722.834 497.353V472.681C722.834 464.142 719.041 460.345 715.722 460.345C710.032 460.345 707.187 467.937 707.187 467.937V503.047L712.877 504.471V505.894H686.326V504.471L692.016 503.047V442.317L686.326 440.893V439.47H698.653C704.343 439.47 707.187 442.317 707.187 448.009V463.192C707.187 463.192 710.981 457.024 719.515 457.024C730.42 457.024 738.006 464.616 738.006 472.681V503.047L743.696 504.471V505.894H731.368C725.678 505.894 722.834 503.047 722.834 497.353Z" fill="#7D1E1E"/>
<path d="M509.198 228.625L521.35 232.274V235.922H487.323C471.524 235.922 461.802 226.193 454.511 215.248L418.053 159.308V228.625L432.636 232.274V235.922H363.365V232.274L377.949 228.625V72.9655L363.365 69.3172V65.6689H432.636V69.3172L418.053 72.9655V149.336L477.601 76.6138L459.372 69.3172V65.6689H505.552V69.3172L486.108 76.6138L443.573 128.906L509.198 228.625ZM559.185 178.766C559.185 178.766 554.324 189.71 554.324 204.303C554.324 223.761 561.616 231.057 568.908 231.057C583.491 231.057 590.782 211.6 590.782 211.6V176.333C576.199 176.333 559.185 178.766 559.185 178.766ZM568.908 110.664C607.796 110.664 629.671 132.554 629.671 162.956V228.625L644.254 232.274V235.922H622.379C599.289 235.922 594.428 217.68 594.428 217.68C594.428 217.68 584.706 239.57 559.185 239.57C528.804 239.57 514.22 224.977 514.22 206.736C514.22 192.143 522.727 179.982 522.727 179.982C522.727 179.982 557.97 171.469 590.782 170.253V162.956C590.782 125.257 581.06 115.529 564.046 115.529C556.755 115.529 551.894 117.961 551.894 117.961V154.444C551.894 154.444 547.033 155.66 542.172 155.66C531.234 155.66 523.943 148.363 523.943 137.418C523.943 124.041 537.311 110.664 568.908 110.664ZM655.306 114.313V102.152C655.306 87.5586 662.598 80.262 677.181 80.262H694.194V114.313H728.222V120.393H694.194V194.575C694.194 226.193 701.486 233.49 712.424 233.49C723.361 233.49 734.298 222.545 734.298 201.871H740.375C740.375 226.193 727.007 239.57 707.562 239.57C674.75 239.57 655.306 220.113 655.306 194.575V120.393H638.292V114.313H655.306ZM780.526 175.117C802.401 175.117 814.554 172.685 814.554 172.685C814.554 172.685 816.984 164.172 816.984 154.444C816.984 125.257 807.262 115.529 798.755 115.529C790.248 115.529 780.526 125.257 780.526 175.117ZM804.831 239.57C763.512 239.57 739.207 215.248 739.207 175.117C739.207 134.986 763.512 110.664 798.755 110.664C835.213 110.664 857.088 132.554 857.088 159.308C857.088 167.821 854.657 173.901 854.657 173.901C854.657 173.901 819.415 181.198 780.526 181.198C780.526 221.329 792.679 233.49 809.692 233.49C829.137 233.49 844.935 217.68 844.935 201.871H851.012C851.012 221.329 832.783 239.57 804.831 239.57Z" fill="#303030"/>
<path d="M303.817 395.23L315.97 398.878V402.526H281.942C266.144 402.526 256.422 392.798 249.13 381.853L212.672 325.913V395.23L227.255 398.878V402.526H157.985V398.878L172.568 395.23V239.57L157.985 235.922V232.273H227.255V235.922L212.672 239.57V315.941L272.22 243.218L253.991 235.922V232.273H300.171V235.922L280.727 243.218L238.193 295.51L303.817 395.23ZM392.636 319.832V285.781C373.192 285.781 362.255 305.239 362.255 305.239V395.23L376.838 398.878V402.526H308.783V398.878L323.366 395.23V288.214L308.783 284.565V280.917H330.658C353.748 280.917 358.609 299.159 358.609 299.159C358.609 299.159 370.762 279.701 394.824 279.701C412.081 279.701 420.588 288.214 420.588 302.807C420.588 313.752 413.296 321.048 402.359 321.048C397.498 321.048 392.636 319.832 392.636 319.832ZM498.28 357.774L523.8 291.862L505.571 284.565V280.917H550.536V284.565L531.092 291.862L482.481 417.119C472.03 443.873 460.606 454.818 446.023 454.818C431.44 454.818 422.933 446.306 422.933 432.929C422.933 420.768 430.225 413.471 441.162 413.471C446.023 413.471 450.884 414.687 450.884 414.687V447.522C459.391 446.306 466.44 439.009 475.19 417.119L480.051 404.958L416.857 288.214L404.704 284.565V280.917H435.086C453.315 280.917 461.336 289.43 467.898 301.591L498.28 357.774ZM535.962 232.273H567.559C582.142 232.273 589.433 239.57 589.433 254.163V339.29L634.398 291.862L616.169 284.565V280.917H662.35V284.565L642.905 291.862L614.954 321.048L662.35 395.23L674.502 398.878V402.526H642.905C625.892 402.526 617.628 394.014 610.093 381.853L589.433 349.018V395.23L604.017 398.878V402.526H535.962V398.878L550.545 395.23V239.57L535.962 235.922V232.273ZM663.47 280.917H695.067C709.65 280.917 716.942 288.214 716.942 302.807V366.044C716.942 387.933 726.664 397.662 735.171 397.662C749.754 397.662 757.046 378.204 757.046 378.204V288.214L742.463 284.565V280.917H810.518V284.565L795.934 288.214V403.742H793.504C765.553 403.742 760.692 384.285 760.692 384.285C760.692 384.285 750.969 406.175 725.449 406.175C697.498 406.175 678.053 386.717 678.053 366.044V288.214L663.47 284.565V280.917ZM904.188 380.637V317.4C904.188 295.51 894.466 285.781 885.959 285.781C871.376 285.781 864.084 305.239 864.084 305.239V395.23L878.668 398.878V402.526H810.612V398.878L825.196 395.23V288.214L810.612 284.565V280.917H832.487C855.577 280.917 860.438 299.159 860.438 299.159C860.438 299.159 870.161 277.269 895.681 277.269C923.632 277.269 943.077 296.726 943.077 317.4V395.23L957.66 398.878V402.526H926.063C911.48 402.526 904.188 395.23 904.188 380.637Z" fill="#303030"/>
</svg>
