<svg width="53" height="695" viewBox="0 0 53 695" fill="none" xmlns="http://www.w3.org/2000/svg">
<path d="M44.9572 695H4.33074V686.991H21.9974V684.367L4.33074 677.462V668.832L23.8534 677.117L44.9572 668.625V677.324L27.2905 684.022V686.991H44.9572V695Z" fill="#020202"/>
<path d="M45.5071 655.592C45.5071 657.893 45.2322 659.872 44.6822 661.53C44.1323 663.141 43.0553 664.36 41.4514 665.189C39.8016 666.018 37.3956 666.432 34.2335 666.432H19.7977C16.2689 666.432 13.8171 665.534 12.4423 663.739C11.0216 661.944 10.3113 659.228 10.3113 655.592C10.3113 651.955 11.0216 649.262 12.4423 647.513C13.8171 645.718 16.2689 644.82 19.7977 644.82H34.2335C37.3956 644.82 39.7786 645.235 41.3826 646.063C42.9866 646.846 44.0865 648.043 44.6822 649.654C45.2322 651.265 45.5071 653.244 45.5071 655.592ZM40.8327 655.592C40.8327 654.579 40.5577 653.842 40.0078 653.382C39.412 652.922 38.358 652.692 36.8457 652.692H18.9728C17.5521 652.692 16.5439 652.922 15.9481 653.382C15.3065 653.796 14.9857 654.533 14.9857 655.592C14.9857 656.604 15.2836 657.364 15.8794 657.87C16.4751 658.33 17.5063 658.561 18.9728 658.561H36.8457C38.358 658.561 39.412 658.33 40.0078 657.87C40.5577 657.364 40.8327 656.604 40.8327 655.592Z" fill="#020202"/>
<path d="M53 635.907C53 637.196 52.8854 638.439 52.6563 639.636C52.473 640.832 52.2897 641.776 52.1064 642.466H47.9818C48.0735 642.19 48.1652 641.799 48.2568 641.293C48.3485 640.74 48.3943 640.165 48.3943 639.567C48.3943 638.968 48.3026 638.301 48.1193 637.564C47.936 636.782 47.3402 636.252 46.332 635.976C45.9196 635.884 45.4842 635.792 45.0259 635.7C44.5677 635.562 44.0177 635.562 43.3761 635.7L10.93 642.674V634.526L37.4643 630.383V630.314L10.93 626.172V618.715L42.0013 625.343C45.8967 626.126 48.6922 627.368 50.3878 629.072C52.1293 630.775 53 633.053 53 635.907Z" fill="#020202"/>
<path d="M44.9572 602.998H33.4773C34.8521 603.32 35.952 604.079 36.7769 605.276C37.6018 606.473 38.0143 607.854 38.0143 609.419C38.0143 611.536 37.6706 613.147 36.9831 614.252C36.2499 615.357 35.2188 616.093 33.8898 616.462C32.5149 616.83 30.8651 617.014 28.9403 617.014H10.93V609.143H28.9403C30.1777 609.143 31.1172 608.959 31.7588 608.59C32.4003 608.176 32.7211 607.44 32.7211 606.381C32.7211 605.598 32.5378 604.977 32.1712 604.517C31.8046 604.056 31.438 603.734 31.0713 603.55H10.93V595.679H44.9572V602.998Z" fill="#020202"/>
<path d="M44.9572 591.109H10.93V584.204H30.8651L10.93 576.333V569.428H44.9572V576.333H23.166C26.8323 577.76 30.4756 579.164 34.096 580.545C37.6706 581.926 41.291 583.33 44.9572 584.757V591.109Z" fill="#020202"/>
<path d="M44.9572 564.947H10.93V557.076H24.3346V550.862H10.93V543.128H44.9572V550.862H30.2464V557.076H44.9572V564.947Z" fill="#020202"/>
<path d="M44.9572 538.583H10.93V521.39H16.5668V530.228H44.9572V538.583Z" fill="#020202"/>
<path d="M28.4591 507.104H23.166V465.745H28.4591V507.104Z" fill="#020202"/>
<path d="M51.0752 429.957H44.9572V450.118H10.93V442.247H39.3204V436.171H10.93V428.299H41.3139V423.673H51.0752V429.957Z" fill="#020202"/>
<path d="M45.5071 409.073C45.5071 411.467 45.2551 413.492 44.751 415.149C44.201 416.761 43.147 417.98 41.5888 418.809C39.9849 419.637 37.5789 420.052 34.3709 420.052H19.0415C15.6961 420.052 13.4047 419.154 12.1673 417.359C10.93 415.564 10.3113 412.848 10.3113 409.212C10.3113 405.621 10.93 402.928 12.1673 401.133C13.4047 399.338 15.6961 398.44 19.0415 398.44H28.3217V412.181H37.6018C38.9767 412.181 39.939 411.973 40.489 411.559C41.0389 411.099 41.3139 410.293 41.3139 409.143C41.3139 408.084 41.0618 407.37 40.5577 407.002C40.0078 406.588 39.0225 406.381 37.6018 406.381H32.1712V398.44H34.3022C37.5102 398.44 39.9161 398.855 41.5201 399.683C43.1241 400.512 44.201 401.732 44.751 403.343C45.2551 404.908 45.5071 406.818 45.5071 409.073ZM24.7471 412.181V406.381H18.6291C17.3 406.381 16.3606 406.588 15.8106 407.002C15.2607 407.37 14.9857 408.107 14.9857 409.212C14.9857 410.316 15.2607 411.099 15.8106 411.559C16.3606 411.973 17.3 412.181 18.6291 412.181H24.7471Z" fill="#020202"/>
<path d="M44.8885 372.395C44.8885 375.801 44.1781 378.332 42.7575 379.99C41.3368 381.601 39.2516 382.406 36.5019 382.406H32.5837V375.433H34.6459C36.4332 375.433 37.7622 375.179 38.6329 374.673C39.5037 374.167 39.939 373.315 39.939 372.118C39.939 370.968 39.5724 370.093 38.8392 369.495C38.1059 368.896 37.0977 368.597 35.8145 368.597H32.3774C31.0942 368.597 30.2235 369.057 29.7652 369.978C29.2611 370.899 29.0091 372.233 29.0091 373.983V377.918H25.2283V374.535C25.2283 373.752 25.1366 372.97 24.9533 372.187C24.77 371.359 24.5179 370.76 24.1971 370.392C23.8305 369.886 23.441 369.472 23.0285 369.149C22.5703 368.827 21.9057 368.666 21.035 368.666H18.1479C17.1396 368.666 16.3147 368.988 15.6732 369.633C14.9857 370.231 14.642 371.014 14.642 371.98C14.642 373.223 15.1003 374.098 16.0169 374.604C16.9334 375.11 18.1249 375.363 19.5914 375.363H21.6537V382.337H18.4916C15.8335 382.337 13.8171 381.532 12.4423 379.921C11.0674 378.263 10.38 375.709 10.38 372.256C10.38 368.298 11.0216 365.467 12.3048 363.764C13.5422 362.015 15.4669 361.14 18.0791 361.14H20.6226C22.4099 361.14 23.9222 361.669 25.1595 362.728C26.3969 363.787 27.1301 365.444 27.3593 367.699C27.4968 365.582 28.1154 363.948 29.2153 362.797C30.3152 361.6 31.8733 361.002 33.8898 361.002H36.4332C39.4578 361.002 41.6347 361.9 42.9637 363.695C44.2469 365.49 44.8885 368.39 44.8885 372.395Z" fill="#020202"/>
<path d="M44.9572 355.854H10.93V346.119L35.1271 340.733L10.93 335.348V325.681H44.9572V332.103H21.1038L44.9572 338.04V343.426L21.1038 349.433H44.9572V355.854Z" fill="#020202"/>
<path d="M44.9572 320.92H10.93V313.049H44.9572V320.92ZM7.14916 316.985C7.14916 317.997 6.80545 318.872 6.11803 319.609C5.38478 320.345 4.53696 320.713 3.57458 320.713C2.56636 320.713 1.71855 320.345 1.03113 319.609C0.343709 318.872 0 317.997 0 316.985C0 315.972 0.343709 315.098 1.03113 314.361C1.71855 313.578 2.56636 313.187 3.57458 313.187C4.53696 313.187 5.38478 313.578 6.11803 314.361C6.80545 315.098 7.14916 315.972 7.14916 316.985Z" fill="#020202"/>
<path d="M44.9572 308.116H10.93V300.244H24.3346V294.03H10.93V286.297H44.9572V294.03H30.2464V300.244H44.9572V308.116Z" fill="#020202"/>
<path d="M45.5071 275.33C45.5071 276.527 45.3467 277.655 45.0259 278.713C44.7051 279.726 44.0406 280.578 43.0324 281.268C41.9784 281.913 40.4431 282.235 38.4267 282.235H33.8898C31.7358 282.235 29.9944 281.613 28.6654 280.371C27.2905 279.082 26.1219 277.079 25.1595 274.364C24.5638 272.937 24.0367 271.809 23.5785 270.98C23.1202 270.152 22.5703 269.553 21.9287 269.185C21.2412 268.817 20.3247 268.633 19.179 268.633H17.323C16.5897 268.633 16.0398 268.748 15.6732 268.978C15.2607 269.208 14.9628 269.553 14.7795 270.014C14.5962 270.428 14.5045 270.911 14.5045 271.464C14.5045 272.66 14.917 273.443 15.7419 273.811C16.521 274.179 17.85 274.364 19.7289 274.364H22.6161V281.475H18.9728C17.2771 281.475 15.7877 281.245 14.5045 280.785C13.1755 280.279 12.1444 279.312 11.4112 277.885C10.6321 276.458 10.2425 274.318 10.2425 271.464C10.2425 268.564 10.5175 266.331 11.0674 264.766C11.5716 263.201 12.3965 262.119 13.5422 261.521C14.642 260.923 16.1543 260.623 18.0791 260.623H44.9572V268.495H41.1764C42.5054 268.863 43.5594 269.714 44.3385 271.049C45.1176 272.338 45.5071 273.765 45.5071 275.33ZM40.3515 271.947C40.3515 270.704 39.8932 269.853 38.9767 269.392C38.0143 268.886 36.6853 268.633 34.9896 268.633H26.2594C26.7177 268.909 27.1301 269.369 27.4968 270.014C27.8176 270.658 28.1842 271.303 28.5966 271.947C29.1924 272.822 29.8111 273.489 30.4527 273.949C31.0484 274.41 31.8962 274.64 32.9961 274.64H36.5019C37.4643 274.64 38.2434 274.525 38.8392 274.295C39.3891 274.064 39.7786 273.742 40.0078 273.328C40.2369 272.914 40.3515 272.453 40.3515 271.947Z" fill="#020202"/>
<path d="M44.9572 244.734H10.93V234.998L35.1271 229.613L10.93 224.227V214.561H44.9572V220.982H21.1038L44.9572 226.92V232.306L21.1038 238.313H44.9572V244.734Z" fill="#020202"/>
<path d="M45.5071 203.655C45.5071 204.852 45.3467 205.979 45.0259 207.038C44.7051 208.051 44.0406 208.902 43.0324 209.593C41.9784 210.237 40.4431 210.559 38.4267 210.559H33.8898C31.7358 210.559 29.9944 209.938 28.6654 208.695C27.2905 207.406 26.1219 205.404 25.1595 202.688C24.5638 201.261 24.0367 200.133 23.5785 199.305C23.1202 198.476 22.5703 197.878 21.9287 197.51C21.2412 197.141 20.3247 196.957 19.179 196.957H17.323C16.5897 196.957 16.0398 197.072 15.6732 197.303C15.2607 197.533 14.9628 197.878 14.7795 198.338C14.5962 198.753 14.5045 199.236 14.5045 199.788C14.5045 200.985 14.917 201.768 15.7419 202.136C16.521 202.504 17.85 202.688 19.7289 202.688H22.6161V209.8H18.9728C17.2771 209.8 15.7877 209.57 14.5045 209.109C13.1755 208.603 12.1444 207.636 11.4112 206.209C10.6321 204.783 10.2425 202.642 10.2425 199.788C10.2425 196.888 10.5175 194.656 11.0674 193.091C11.5716 191.526 12.3965 190.444 13.5422 189.846C14.642 189.247 16.1543 188.948 18.0791 188.948H44.9572V196.819H41.1764C42.5054 197.187 43.5594 198.039 44.3385 199.374C45.1176 200.663 45.5071 202.09 45.5071 203.655ZM40.3515 200.272C40.3515 199.029 39.8932 198.177 38.9767 197.717C38.0143 197.211 36.6853 196.957 34.9896 196.957H26.2594C26.7177 197.234 27.1301 197.694 27.4968 198.338C27.8176 198.983 28.1842 199.627 28.5966 200.272C29.1924 201.146 29.8111 201.814 30.4527 202.274C31.0484 202.734 31.8962 202.964 32.9961 202.964H36.5019C37.4643 202.964 38.2434 202.849 38.8392 202.619C39.3891 202.389 39.7786 202.067 40.0078 201.652C40.2369 201.238 40.3515 200.778 40.3515 200.272Z" fill="#020202"/>
<path d="M44.9572 184.521H10.93V177.616H30.8651L10.93 169.745V162.841H44.9572V169.745H23.166C26.8323 171.172 30.4756 172.576 34.096 173.957C37.6706 175.338 41.291 176.742 44.9572 178.169V184.521ZM7.49287 173.819C7.49287 175.936 7.10333 177.547 6.32425 178.652C5.54518 179.757 4.62862 180.516 3.57458 180.931C2.47471 181.299 1.48941 181.506 0.618677 181.552V177.271C1.67272 177.179 2.4518 176.788 2.9559 176.097C3.46001 175.407 3.71206 174.624 3.71206 173.75C3.71206 172.783 3.48292 171.978 3.02465 171.333C2.52054 170.643 1.71855 170.252 0.618677 170.159V165.879C1.8102 165.879 2.93299 166.155 3.98703 166.707C4.99525 167.26 5.84306 168.111 6.53048 169.262C7.17207 170.367 7.49287 171.886 7.49287 173.819Z" fill="#020202"/>
<path d="M44.9572 158.359H10.93V150.488H24.3346V144.274H10.93V136.541H44.9572V144.274H30.2464V150.488H44.9572V158.359Z" fill="#020202"/>
<path d="M52.7938 133.031H40.3515V130.545C40.2598 130.039 40.0078 129.463 39.5953 128.819C39.137 128.174 38.4496 127.599 37.5331 127.093C36.5707 126.54 35.3104 126.172 33.7523 125.988L10.93 123.502V103.824H40.3515V98.3697H52.7938V104.929H46.4695V126.471H52.7938V133.031ZM40.3515 120.326V112.179H16.5668V116.322L33.3398 118.255C34.6688 118.439 36.0437 118.669 37.4643 118.945C38.885 119.222 39.8474 119.682 40.3515 120.326Z" fill="#020202"/>
<path d="M45.5071 84.142C45.5071 86.4895 45.2551 88.4918 44.751 90.1489C44.2469 91.76 43.2157 92.9798 41.6576 93.8084C40.0536 94.6369 37.6706 95.0512 34.5084 95.0512H19.5227C16.0398 95.0512 13.6338 94.1536 12.3048 92.3584C10.9758 90.5632 10.3113 87.8474 10.3113 84.211C10.3113 80.6206 10.9529 77.9279 12.2361 76.1327C13.4734 74.3375 15.7419 73.4399 19.0415 73.4399H24.0597V81.3801H18.6291C17.3 81.3801 16.3606 81.5873 15.8106 82.0015C15.2149 82.3698 14.917 83.1063 14.917 84.211C14.917 85.3157 15.2149 86.0983 15.8106 86.5586C16.3606 86.9728 17.3 87.18 18.6291 87.18H37.0519C38.4725 87.18 39.4808 86.9728 40.0765 86.5586C40.6265 86.0983 40.9014 85.2927 40.9014 84.142C40.9014 83.0833 40.6265 82.3698 40.0765 82.0015C39.5266 81.5873 38.5184 81.3801 37.0519 81.3801H31.2088V73.4399H34.5084C37.6247 73.4399 39.9849 73.8541 41.5888 74.6827C43.1928 75.5112 44.2469 76.7311 44.751 78.3421C45.2551 79.9072 45.5071 81.8404 45.5071 84.142Z" fill="#020202"/>
<path d="M45.5071 58.7876C45.5071 61.1812 45.2551 63.2065 44.751 64.8636C44.201 66.4747 43.147 67.6945 41.5888 68.5231C39.9849 69.3516 37.5789 69.7659 34.3709 69.7659H19.0415C15.6961 69.7659 13.4047 68.8683 12.1673 67.0731C10.93 65.2779 10.3113 62.5621 10.3113 58.9257C10.3113 55.3353 10.93 52.6425 12.1673 50.8473C13.4047 49.0522 15.6961 48.1546 19.0415 48.1546H28.3217V61.8947H37.6018C38.9767 61.8947 39.939 61.6875 40.489 61.2733C41.0389 60.8129 41.3139 60.0074 41.3139 58.8567C41.3139 57.798 41.0618 57.0845 40.5577 56.7162C40.0078 56.302 39.0225 56.0948 37.6018 56.0948H32.1712V48.1546H34.3022C37.5102 48.1546 39.9161 48.5688 41.5201 49.3974C43.1241 50.2259 44.201 51.4457 44.751 53.0568C45.2551 54.6218 45.5071 56.5321 45.5071 58.7876ZM24.7471 61.8947V56.0948H18.6291C17.3 56.0948 16.3606 56.302 15.8106 56.7162C15.2607 57.0845 14.9857 57.821 14.9857 58.9257C14.9857 60.0304 15.2607 60.8129 15.8106 61.2733C16.3606 61.6875 17.3 61.8947 18.6291 61.8947H24.7471Z" fill="#020202"/>
<path d="M44.9572 39.3021H16.5668V45.7924H10.93V24.7335H16.5668V31.2928H44.9572V39.3021Z" fill="#020202"/>
<path d="M53 17.1924C53 18.4812 52.8854 19.7241 52.6563 20.9209C52.473 22.1177 52.2897 23.0613 52.1064 23.7517H47.9818C48.0735 23.4756 48.1652 23.0843 48.2568 22.578C48.3485 22.0256 48.3943 21.4502 48.3943 20.8518C48.3943 20.2534 48.3026 19.586 48.1193 18.8495C47.936 18.067 47.3402 17.5376 46.332 17.2614C45.9196 17.1694 45.4842 17.0773 45.0259 16.9853C44.5677 16.8472 44.0177 16.8472 43.3761 16.9853L10.93 23.9589V15.8115L37.4643 11.6687V11.5997L10.93 7.45694V0L42.0013 6.62839C45.8967 7.41091 48.6922 8.65373 50.3878 10.3569C52.1293 12.06 53 14.3385 53 17.1924Z" fill="#020202"/>
</svg>
